<svg width="1044" height="1044" viewBox="0 0 1044 1044" fill="none" xmlns="http://www.w3.org/2000/svg">
<g id="_Border_line">
<path id="Border_line" fill-rule="evenodd" clip-rule="evenodd" d="M537.061 85.001L537 959.001C536.999 967.285 530.283 974 521.999 974C513.715 973.999 506.999 967.283 507 958.999L507.061 84.999C507.061 76.7147 513.778 69.9994 522.062 70C530.346 70.0006 537.061 76.7168 537.061 85.001Z" fill="black"/>
</g>
<g id="_Day" clip-path="url(#clip0_0_1)">
<path id="Day" fill-rule="evenodd" clip-rule="evenodd" d="M349.878 143.105C356.437 140.953 363.499 144.527 365.65 151.087L408.176 280.756C429.149 275.047 451.219 272 474 272C612.071 272 724 383.929 724 522C724 660.071 612.071 772 474 772C446.309 772 419.669 767.498 394.772 759.185L352.864 888.112C350.73 894.678 343.678 898.27 337.112 896.136C330.547 894.002 326.955 886.949 329.089 880.384L371.449 750.066C333.649 733.043 300.842 706.898 275.834 674.435L158.908 764.379C153.436 768.588 145.588 767.564 141.379 762.092C137.169 756.62 138.193 748.772 143.665 744.563L261.567 653.869C237.754 615.589 224 570.401 224 522C224 520.991 224.006 519.983 224.018 518.977L95.5 518.998C88.5964 518.999 82.9991 513.404 82.998 506.5C82.9969 499.596 88.5924 493.999 95.496 493.998L225.553 493.977C230.392 450.591 246.335 410.558 270.475 376.786L159.211 298.211C153.571 294.228 152.228 286.429 156.211 280.789C160.193 275.15 167.993 273.807 173.632 277.79L286.032 357.167C312.545 326.957 346.225 303.193 384.416 288.53L341.895 158.878C339.744 152.318 343.318 145.256 349.878 143.105ZM465 243.011C465 247.982 469.029 252.011 474 252.011C478.971 252.011 483 247.982 483 243.011V171.989C483 167.018 478.971 162.989 474 162.989C469.029 162.989 465 167.018 465 171.989V243.011ZM209.77 435.23C214.485 436.802 219.582 434.254 221.154 429.538C222.726 424.823 220.177 419.726 215.462 418.154L139.538 392.846C134.823 391.274 129.726 393.823 128.154 398.538C126.582 403.254 129.131 408.351 133.846 409.922L209.77 435.23ZM210.731 597.19C212.792 601.714 210.795 607.051 206.272 609.111L132.652 642.649C128.129 644.71 122.792 642.714 120.731 638.19C118.67 633.667 120.667 628.33 125.19 626.269L198.81 592.731C203.333 590.67 208.67 592.667 210.731 597.19ZM275.889 215.861C273.05 211.78 267.442 210.773 263.361 213.611C259.28 216.45 258.273 222.058 261.111 226.139L308.115 293.72C310.954 297.801 316.562 298.808 320.643 295.97C324.724 293.132 325.731 287.523 322.893 283.443L275.889 215.861ZM310.287 734.283C314.311 737.2 315.208 742.828 312.29 746.852L264.856 812.279C261.938 816.303 256.311 817.2 252.287 814.283C248.262 811.365 247.365 805.738 250.283 801.714L297.717 736.287C300.635 732.262 306.262 731.365 310.287 734.283ZM465 874.022C465 878.993 469.029 883.022 474 883.022C478.971 883.022 483 878.993 483 874.022V803C483 798.029 478.971 794 474 794C469.029 794 465 798.029 465 803V874.022Z" fill="black"/>
</g>
<g id="_Night" clip-path="url(#clip1_0_1)">
<path id="Night" fill-rule="evenodd" clip-rule="evenodd" d="M745.25 270.407C660.828 297.182 600 372.621 600 461.5C600 572.785 695.363 663 813 663C844.059 663 873.566 656.711 900.175 645.406C854.418 719.8 769.277 770 679.5 770C546.676 770 439 660.118 439 524.572C439 389.025 546.676 260 679.5 260C701.884 260 723.981 263.664 745.25 270.407Z" fill="black"/>
</g>
<defs>
<clipPath id="clip0_0_1">
<rect width="458" height="851" fill="white" transform="translate(16 96)"/>
</clipPath>
<clipPath id="clip1_0_1">
<rect width="458" height="851" fill="white" transform="translate(568 85)"/>
</clipPath>
</defs>
</svg>
